<?xml version="1.0" encoding="UTF-8"?>
<svg id="Layer_1" xmlns="http://www.w3.org/2000/svg" version="1.1" viewBox="0 0 1084 360">
  <!-- Generator: Adobe Illustrator 29.5.0, SVG Export Plug-In . SVG Version: 2.1.0 Build 137)  -->
  <defs>
    <style>
      .st0 {
        fill: #333c66;
      }

      .st1 {
        fill: #e94165;
      }
    </style>
  </defs>
  <g>
    <path class="st0" d="M833.85,249.36h18.16c.83,0,1.51-.66,1.51-1.47v-93.68c0-.81-.68-1.47-1.51-1.47h-17.65c-.83,0-1.51.66-1.51,1.47v94.17c0,.54.45.98,1.01.98Z"/>
    <path class="st0" d="M888.38,164.82v-10.61c0-.81-.68-1.47-1.51-1.47h-17.65c-.83,0-1.51.66-1.51,1.47v93.68c0,.81.68,1.47,1.51,1.47h17.65c.83,0,1.51-.66,1.51-1.47v-49.29c0-9.93,2.08-16.9,6.26-20.92,4.17-4.02,10.3-6.03,18.4-6.03h3.75c.83,0,1.51-.66,1.51-1.47v-17.93c0-.83-.7-1.51-1.55-1.49-6.24.19-11.67,1.58-16.31,4.14-4.52,2.51-8.24,5.9-11.14,10.18-.28.41-.92.24-.92-.26Z"/>
    <path class="st0" d="M635.01,170.52c18.87,0,33.82,16.7,30.21,35.78-2.27,11.98-12.11,21.6-24.36,23.82-19.51,3.53-36.59-11.09-36.59-29.54,0-16.58,13.79-30.07,30.75-30.07M635.01,150.48c-30.23,0-54.34,25.58-50.93,55.81,2.6,22.98,21.59,41.55,45.09,44.09,30.92,3.34,57.08-20.24,57.08-49.79,0-27.67-22.95-50.11-51.25-50.11h0Z"/>
    <path class="st0" d="M822.6,124.98v-16.51c0-.77-.65-1.45-1.44-1.48-13.6-.6-27.28,2.34-34.38,8.8-7.35,6.69-11.03,16.48-11.03,29.35v7.61h-16.19c-.83,0-1.51.66-1.51,1.47v15.97c0,.81.68,1.47,1.51,1.47h16.13v76.24c0,.81.68,1.47,1.51,1.47h17.83c.83,0,1.51-.66,1.51-1.47v-76.24h24.46c.83,0,1.51-.66,1.51-1.47v-15.97c0-.81-.68-1.47-1.51-1.47h-24.55v-7.61c0-13.25,10.38-19.48,24.51-18.69.88.05,1.62-.61,1.62-1.47Z"/>
    <ellipse class="st0" cx="843.24" cy="119.51" rx="12.64" ry="12.36"/>
    <path class="st0" d="M570,172.47c-4.64-7.47-10.77-13.14-18.37-17.02-7.6-3.87-15.75-5.81-24.44-5.81-3.65,0-7.21.39-10.7,1.12-4.63.97-9.11,2.56-13.45,4.82-2.44,1.27-4.73,2.74-6.86,4.38-.33.25-.8.03-.8-.38v-6.77c0-.82-.68-1.48-1.51-1.48h-17.65c-.83,0-1.51.66-1.51,1.48v133.26c0,.81.67,1.47,1.51,1.47h17.69c.82,0,1.48-.65,1.48-1.45v-50.83c0-.46.56-.66.87-.31,3.61,4.05,8.16,7.46,13.63,10.25,5.96,3.03,12.78,4.54,20.45,4.52l1-.04c7.15-.55,13.91-2.5,20.3-5.9,7.6-4.05,13.73-9.95,18.37-17.69,4.64-7.74,6.96-16.75,6.96-27.01s-2.32-19.13-6.96-26.61ZM527.34,229.22c-16.44,0-29.77-13.46-29.77-30.07s13.33-30.07,29.77-30.07,29.77,13.46,29.77,30.07-13.33,30.07-29.77,30.07Z"/>
    <path class="st0" d="M453.7,186.74c-5.4-6.23-13.3-11.17-24.15-15.11l-14.15-5.19c-14.15-5.12-21.34-9.58-21.34-19.76s11.16-15.93,22.18-15.93c6.38,0,12.11,1.56,17.33,4.74,4.56,2.78,10.33,2.75,14.75-.24l7.73-5.24c1.75-1.18,1.87-2.21,1.28-2.86-10.22-11.1-24.67-17.19-40.89-17.19-12.76,0-24.24,3.64-32.31,10.24-8.44,6.91-12.91,16.59-12.91,28.02,0,18.15,10.45,30.3,32.9,38.27l15.33,5.38c13.81,4.96,19.96,11.41,19.96,20.91,0,10.06-9.36,17.08-22.77,17.08-9.35,0-17.83-3.05-24.67-8.73-4.67-3.88-11.34-4.38-16.37-.97l-6.58,4.45c-1.92,1.3-2.19,2.47-1.62,3.34,9.18,14.05,27.52,22.7,48.45,22.7,13.46,0,25.02-3.71,33.42-10.72,8.49-7.09,12.98-16.94,12.98-28.5.1-9.88-2.7-17.96-8.56-24.7Z"/>
    <path class="st0" d="M748.67,171.65c.83,0,1.51-.66,1.51-1.48v-15.92c0-.81-.67-1.47-1.51-1.47h-24.54v-24.86c0-.8-.65-1.45-1.47-1.45h-17.89c-.82,0-1.48.65-1.48,1.45v24.86h-16.14c-.83,0-1.51.66-1.51,1.48v15.92c0,.81.67,1.47,1.51,1.47h16.14v50.45c0,9.61,2.48,16.55,7.43,20.82,4.95,4.27,12.09,6.41,21.4,6.41h16.58c.83,0,1.51-.66,1.51-1.48v-13.95c0-.82-.68-1.48-1.51-1.48h-12.96c-4.23,0-7.22-.8-8.98-2.4-1.75-1.6-2.63-4.24-2.63-7.92v-50.45h24.53Z"/>
    <path class="st0" d="M971.13,231.85c-8.06,0-14.88-1.94-20.46-5.81-5.59-3.88-9.16-11.17-10.71-18.41h76.24c.76,0,1.4-.57,1.5-1.3.39-2.96.6-5.38.6-7.27,0-10.46-2.38-16.78-7.7-26.11-1.6-2.8-3.73-5.32-6.04-7.79-9.16-9.77-20.89-14.67-35.17-14.67-15.07,0-27.41,4.8-37.02,14.38-9.61,9.6-14.42,21.51-14.42,35.73s4.87,26.46,14.62,35.92c9.74,9.47,22.54,14.19,38.39,14.19,16.67,0,29.7-5.45,39.15-16.3.53-.6.45-1.53-.15-2.06l-4.62-4.09c-4.48-3.97-11.17-4.57-16.17-1.25-4.86,3.23-10.87,4.84-18.02,4.84ZM949.7,175.46c5.19-4.2,11.7-6.29,19.48-6.29,6.88,0,12.89,1.97,18.03,5.91,5.03,3.86,8.27,7.83,9.74,15.35.03.15.07.3.1.45h-57.29c1.42-7.24,4.74-11.23,9.94-15.41Z"/>
  </g>
  <g>
    <path class="st0" d="M271.99,177.27c-2.28-46.63-40.2-84.92-87.36-86.39-50.16-1.85-92.1,38.3-93.59,87.98-1.64,42.02,26.45,80.42,67.35,91.32v-11.59c-.42-6.96-3.93-13.5-9.61-17.86-1.97-1.48-3.4-2.56-5.2-3.92-4.9-3.41-9.45-7.63-13.57-12.67-10-12.24-15.49-28.57-14.82-44.45.51-22.29,13.14-43.47,31.87-54.84,20.99-12.89,47.98-12.9,68.97,0,18.72,11.37,31.36,32.55,31.87,54.85.68,15.83-4.84,32.23-14.82,44.44-4.14,5.05-8.69,9.28-13.65,12.72-1.76,1.35-3.22,2.44-5.15,3.89-5.66,4.34-9.16,10.88-9.59,17.92,0,.13,0,11.39,0,11.51,41.6-11.16,69.55-50.22,67.31-92.92Z"/>
    <path class="st1" d="M181.53,145.73c-19.32,0-35.04,15.6-35.04,34.77s15.72,34.77,35.04,34.77,35.04-15.6,35.04-34.77-15.72-34.77-35.04-34.77Z"/>
    <path class="st0" d="M181.53,70.54c29.68,0,57.57,11.46,78.54,32.27,20.92,20.76,32.44,48.35,32.44,77.69s-11.52,56.93-32.44,77.69c-20.97,20.81-48.86,32.27-78.54,32.27s-57.57-11.46-78.54-32.27c-20.92-20.76-32.44-48.35-32.44-77.69s11.52-56.93,32.44-77.69c20.97-20.81,48.86-32.27,78.54-32.27M181.53,46c-74.85,0-135.53,60.22-135.53,134.5s60.68,134.5,135.53,134.5,135.53-60.22,135.53-134.5S256.38,46,181.53,46h0Z"/>
  </g>
  <path class="st0" d="M1022.27,149.71c-1.73,0-3.38-.33-4.94-.99-1.56-.66-2.92-1.57-4.09-2.74-1.16-1.16-2.08-2.53-2.74-4.09-.66-1.56-.99-3.2-.99-4.94s.33-3.46.99-5.01c.66-1.54,1.58-2.9,2.74-4.06,1.16-1.16,2.53-2.08,4.09-2.74s3.2-.99,4.94-.99,3.46.33,5.01.99,2.9,1.58,4.06,2.74c1.16,1.17,2.08,2.52,2.74,4.06.66,1.54.99,3.21.99,5.01s-.33,3.38-.99,4.94-1.58,2.92-2.74,4.09c-1.16,1.17-2.52,2.08-4.06,2.74-1.54.66-3.21.99-5.01.99ZM1022.27,147.06c1.98,0,3.73-.43,5.24-1.28,1.51-.85,2.69-2.04,3.54-3.57.85-1.53,1.28-3.28,1.28-5.27s-.43-3.78-1.28-5.29c-.85-1.51-2.03-2.7-3.54-3.57-1.51-.87-3.26-1.3-5.24-1.3s-3.68.43-5.2,1.3c-1.51.87-2.69,2.05-3.54,3.57s-1.28,3.28-1.28,5.29.42,3.74,1.28,5.27c.85,1.53,2.03,2.72,3.54,3.57,1.51.85,3.24,1.28,5.2,1.28ZM1017.5,143.66v-13.79h4.96c1.42,0,2.58.4,3.5,1.2.91.8,1.37,1.87,1.37,3.19,0,.88-.25,1.67-.73,2.36-.49.69-1.14,1.21-1.96,1.56l3.26,5.48h-2.79l-2.83-5.01h-2.31v5.01h-2.46ZM1019.95,136.38h2.6c.63,0,1.16-.2,1.58-.59.42-.39.64-.9.64-1.53,0-.66-.22-1.19-.66-1.58-.44-.39-1.02-.59-1.75-.59h-2.41v4.3Z"/>
</svg>